<svg data-name="Layer 1" xmlns="http://www.w3.org/2000/svg" viewBox="0 0 512 512"><defs><clipPath id="a"><path fill="none" d="M0 0h512v512H0z"/></clipPath><clipPath id="b"><path d="M52.253 256c0 112.667 91.335 204.002 204.002 204.002S460.256 368.667 460.256 256 368.922 51.998 256.255 51.998 52.253 143.333 52.253 256" fill="none"/></clipPath></defs><g clip-path="url(#a)"><g clip-path="url(#a)"><path d="M459.256 256c0 112.667-91.334 204.001-204 204.001S51.252 368.667 51.252 256 142.588 51.999 255.255 51.999 459.256 143.333 459.256 256" fill="#fff9e7"/></g><g clip-path="url(#b)"><path d="M211.807 164.818a396.293 396.293 0 016.84 7.999q3.37 4.036 6.65 8.144 3.298 4.095 6.52 8.247c2.162 2.758 4.284 5.547 6.41 8.332l1.553 2.034-2.433-.736q-5.843-1.769-11.657-3.636c-1.936-.633-3.873-1.26-5.798-1.928-1.926-.661-3.858-1.305-5.773-2.01 1.995.427 3.973.912 5.955 1.382 1.985.46 3.957.965 5.93 1.463q5.92 1.51 11.8 3.145l-.88 1.297c-2.168-2.753-4.341-5.502-6.475-8.281q-3.21-4.163-6.365-8.368-3.153-4.206-6.233-8.47c-2.044-2.847-4.073-5.708-6.044-8.614M304.5 164.818a456.244 456.244 0 01-6.469 9.164q-3.285 4.543-6.659 9.017-3.357 4.486-6.789 8.915c-2.276 2.962-4.59 5.894-6.9 8.829l-.949-1.274q5.769-2.147 11.574-4.195c1.939-.674 3.876-1.354 5.829-1.992 1.949-.646 3.892-1.308 5.859-1.912-1.862.874-3.746 1.69-5.624 2.522-1.874.84-3.766 1.638-5.654 2.443q-5.672 2.395-11.39 4.672l-2.77 1.11 1.821-2.384c2.268-2.968 4.532-5.94 6.834-8.881q3.446-4.42 6.946-8.795 3.501-4.374 7.076-8.693c2.391-2.872 4.8-5.731 7.265-8.546M244.08 209.336s14.872 21.693 29.377.787z"/><path d="M422.755 484.161s-16.94-162.298-52.058-181.453c-35.118-19.155-64.915-31.57-64.915-31.57l-5.261 4.135a70.396 70.396 0 01-87.527-.414l-4.644-3.722s-29.797 12.416-64.915 31.571-52.7 139.522-52.7 139.522" fill="#827ab9"/><path d="M152.735 346.694v94.935l-7.49 18.986 7.49-113.921zM352.55 346.694v94.935l7.49 18.986-7.49-113.921zM212.508 169.784s39.24-20.247 47.197-33.347a23.295 23.295 0 0127.405-10.195c3.421 1.191 6.187 3.06 7.34 5.941 4.257 10.642 9.223 30.861 8.514 37.601 0 0 5.675 5.321 6.74-25.895 0 0 1.064-8.514 5.32-10.997 4.257-2.483-9.932-15.608-9.932-15.608s-.355-6.385-2.128-9.223c-1.774-2.838-39.399-21.077-57.23-17.704-15.557 2.943-35.354 28.701-39.256 31.54-3.903 2.836-7.45 9.221-3.548 13.478s4.966 21.993 5.676 27.314c.71 5.321 3.902 7.095 3.902 7.095"/><path d="M226.224 164.818a12.608 12.608 0 019.016-7.274 12.39 12.39 0 011.57-.177c.531.019 1.061.033 1.586.067a10.201 10.201 0 012.985.925 9.851 9.851 0 012.506 1.69 12.651 12.651 0 011.847 2.286c-.965-.305-1.753-.772-2.618-1.056a16.68 16.68 0 00-2.507-.73 13.935 13.935 0 00-2.438-.32c-.405.03-.806.04-1.205.054a10.41 10.41 0 00-1.197.168 18.49 18.49 0 00-4.744 1.646c-1.576.775-3.145 1.695-4.8 2.72M269.265 161.806a12.942 12.942 0 014.393-3.235 15.505 15.505 0 015.37-1.422 12.278 12.278 0 015.609.958 9.035 9.035 0 014.138 3.699 24.743 24.743 0 00-4.844-1.484 22.287 22.287 0 00-4.71-.224 83.162 83.162 0 00-9.956 1.708M237.576 176.938c5.706 0 5.716-8.868 0-8.868-5.707 0-5.716 8.868 0 8.868M278.96 177.293c5.707 0 5.716-8.868 0-8.868-5.706 0-5.716 8.868 0 8.868M258.53 180.825a47.884 47.884 0 01-.86 4.867c-.34 1.555-.697 3.074-.972 4.558a16.098 16.098 0 00-.359 4.272 4.521 4.521 0 00.564 1.885 5.286 5.286 0 001.626 1.639 3.9 3.9 0 01-2.628-.614 4.849 4.849 0 01-1.779-2.315 10.029 10.029 0 01-.293-5.401 17.499 17.499 0 011.692-4.811 15.112 15.112 0 013.008-4.08M284.848 230.348c-6.495 7.362-12.891 11.34-18.891 13.1 0 0 15.146 1.66 18.89-1.914zM230.067 231.4s7.64 9.33 19.106 12.97c0 0-16.667 4.06-19.106-1.617zM256.125 300.902c-.455 0-.904-.003-1.363-.01-37.286-.602-54.172-23.806-54.872-24.794a5.84 5.84 0 019.51-6.779c.604.832 14.457 19.393 45.55 19.895 31.449.522 49.948-20.128 50.131-20.336a5.84 5.84 0 018.809 7.668c-.873 1.006-21.56 24.356-57.765 24.356"/><path d="M209.07 164.818a23.356 23.356 0 00-4.803 6.906 12.522 12.522 0 00-.981 7.94 11.868 11.868 0 001.532 3.658 17.397 17.397 0 002.599 3.075 29.69 29.69 0 006.739 4.684l.472.253.128.586a134.881 134.881 0 002.777 10.639c1.086 3.509 2.256 6.99 3.58 10.409 1.313 3.425 2.858 6.744 4.472 10.016a78.663 78.663 0 005.619 9.338l.276.398-.005.432-.08 6.02-.04 3.01c-.001.987-.04 2.024-.096 3.078a31.945 31.945 0 01-1.11 6.154 31.09 31.09 0 01-2.36 5.763 28.068 28.068 0 01-8.061 9.266 24.941 24.941 0 01-11.122 4.694 26.715 26.715 0 0010.403-5.601 27.929 27.929 0 007.037-9.244 31.268 31.268 0 001.943-5.457 29.865 29.865 0 00.777-5.714c.069-1.878-.018-3.967-.027-5.95l-.08-6.02.272.83a79.041 79.041 0 01-5.943-9.66 96.64 96.64 0 01-4.574-10.314c-1.321-3.514-2.518-7.071-3.505-10.687-.985-3.623-1.88-7.235-2.52-10.976l.599.839a31.919 31.919 0 01-7.013-5.351 18.924 18.924 0 01-2.691-3.602 12.73 12.73 0 01.202-12.891 21.916 21.916 0 015.585-6.521M305.072 164.818a21.905 21.905 0 015.586 6.52 12.726 12.726 0 01.2 12.892 18.882 18.882 0 01-2.69 3.602 31.871 31.871 0 01-7.013 5.35l.599-.838c-.64 3.74-1.535 7.353-2.52 10.976-.986 3.616-2.184 7.173-3.505 10.687a96.442 96.442 0 01-4.574 10.314 79.033 79.033 0 01-5.942 9.66l.27-.83-.08 6.02c-.008 1.983-.095 4.072-.026 5.95a29.787 29.787 0 00.778 5.714 31.262 31.262 0 001.942 5.457 27.942 27.942 0 007.037 9.244 26.715 26.715 0 0010.403 5.6 24.933 24.933 0 01-11.121-4.693 28.046 28.046 0 01-8.062-9.266 31.093 31.093 0 01-2.36-5.763 31.945 31.945 0 01-1.11-6.154 58.658 58.658 0 01-.096-3.078l-.04-3.01-.08-6.02-.005-.432.276-.398a78.527 78.527 0 005.619-9.338c1.615-3.272 3.159-6.591 4.47-10.016 1.327-3.418 2.496-6.9 3.583-10.41a134.873 134.873 0 002.776-10.638l.128-.586.472-.253a29.72 29.72 0 006.74-4.684 17.434 17.434 0 002.598-3.075 11.895 11.895 0 001.533-3.657 12.53 12.53 0 00-.982-7.941 23.338 23.338 0 00-4.804-6.906"/><path d="M285.231 213.263c0 13.16-12.349 23.827-27.582 23.827s-25.034-10.916-27.582-23.827c-3.843-19.476 12.349-23.828 27.582-23.828s27.582 2.67 27.582 23.828" fill="#fff"/><path d="M257.649 237.966c-14.336 0-25.5-9.63-28.441-24.534-1.365-6.918-.345-12.509 3.032-16.618 4.503-5.478 13.05-8.255 25.409-8.255 13.769 0 28.458 1.91 28.458 24.704 0 13.621-12.766 24.703-28.458 24.703m0-47.655c-11.81 0-19.902 2.562-24.055 7.615-3.03 3.685-3.926 8.788-2.667 15.167 2.104 10.666 10.366 23.121 26.722 23.121 14.726 0 26.706-10.296 26.706-22.95 0-19.198-9.792-22.953-26.706-22.953"/><path d="M242.079 203.789a23.295 23.295 0 016.086-5.213 18.778 18.778 0 017.725-2.691 12.73 12.73 0 018.043 1.878 15.405 15.405 0 015.332 6.026 22.21 22.21 0 00-6.008-4.838 13.04 13.04 0 00-7.205-1.323 22 22 0 00-7.244 2.147 46.113 46.113 0 00-6.73 4.014"/></g><g clip-path="url(#a)"><circle cx="256.745" cy="256" r="204.001" fill="none" stroke="#827ab9" stroke-miterlimit="10" stroke-width="10"/></g></g></svg>