<svg xmlns="http://www.w3.org/2000/svg" enable-background="new 0 0 48 48" viewBox="0 0 48 48"><circle cx="27.4" cy="27.4" r="20" fill="#c7d8f2"/><path fill="#384a66" d="M41.2,27.4l-3.2-1c0.2-0.3,0.5-0.7,0.8-1.1c0.7-1,1.6-2,1.6-3.3c0-1.3-0.8-2.4-1.6-3.3
			c-0.3-0.4-0.6-0.7-0.8-1.1l3.2-1l0.4,1.3l1.4-0.5l-1.3-4l-1.4,0.5l0.4,1.3l-3.2,1c0-0.4,0-0.9,0-1.4c0-1.2,0.1-2.5-0.7-3.5
			c-0.7-1-2-1.4-3.2-1.7c-0.5-0.1-0.9-0.3-1.3-0.4l2-2.7l1.1,0.8l0.9-1.2l-3.4-2.5L32,4.7l1.1,0.8l-2,2.7c-0.3-0.3-0.6-0.7-0.8-1.1
			c-0.7-1-1.5-2.1-2.7-2.5c-1.2-0.4-2.4,0-3.5,0.4c-0.5,0.2-1,0.3-1.4,0.4V2.1H24V0.6h-4.2v1.5h1.4v3.4c-0.5-0.1-0.9-0.3-1.4-0.4
			c-1.2-0.4-2.4-0.8-3.5-0.4c-1.2,0.4-2,1.5-2.7,2.5c-0.3,0.4-0.5,0.8-0.8,1.1l-2-2.7l1.1-0.8l-0.9-1.2L7.4,5.9l0.9,1.2l1.1-0.8
			l2,2.7c-0.4,0.2-0.9,0.3-1.3,0.4c-1.2,0.4-2.4,0.7-3.2,1.7c-0.7,1-0.7,2.3-0.7,3.5c0,0.5,0,1,0,1.4l-3.2-1l0.4-1.3L2,13.4l-1.3,4
			l1.4,0.5l0.4-1.3l3.2,1c-0.2,0.3-0.5,0.7-0.8,1.1c-0.7,1-1.6,2-1.6,3.3s0.8,2.4,1.6,3.3c0.3,0.4,0.6,0.7,0.8,1.1l-3.2,1l-0.4-1.3
			l-1.4,0.5l1.3,4l1.4-0.5L3,28.9l3.2-1c0,0.4,0,0.9,0,1.4c0,1.2-0.1,2.5,0.7,3.5c0.7,1,2,1.4,3.2,1.7c0.5,0.1,0.9,0.3,1.3,0.4
			l-2,2.7l-1.1-0.8l-0.9,1.2l3.4,2.5l0.9-1.2l-1.1-0.8l2-2.7c0.3,0.3,0.6,0.7,0.8,1.1c0.7,1,1.5,2.1,2.7,2.5c1.2,0.4,2.4,0,3.5-0.4
			c0.5-0.2,1-0.3,1.4-0.4v3.4h-1.4v1.5H24v-1.5h-1.4v-3.4c0.5,0.1,0.9,0.3,1.4,0.4c0.8,0.3,1.7,0.6,2.6,0.6c0.3,0,0.7,0,1-0.1
			c1.2-0.4,2-1.5,2.7-2.5c0.3-0.4,0.5-0.8,0.8-1.1l2,2.7L32,39.3l0.9,1.2l3.4-2.5l-0.9-1.2l-1.1,0.8l-2-2.7c0.4-0.2,0.9-0.3,1.3-0.4
			c1.2-0.4,2.4-0.7,3.2-1.7c0.7-1,0.7-2.3,0.7-3.5c0-0.5,0-1,0-1.4l3.2,1l-0.4,1.3l1.4,0.5l1.3-4l-1.4-0.5L41.2,27.4z M36.2,26.6
			c-0.3,0.8-0.3,1.8-0.2,2.7c0,1,0,2-0.4,2.6c-0.4,0.6-1.4,0.9-2.4,1.2c-0.9,0.3-1.7,0.5-2.5,1c-0.7,0.5-1.2,1.3-1.7,2
			c-0.6,0.9-1.2,1.7-1.9,1.9c-0.7,0.2-1.6-0.1-2.6-0.4c-0.9-0.3-1.8-0.6-2.7-0.6s-1.8,0.3-2.7,0.6c-1,0.3-1.9,0.7-2.6,0.4
			c-0.7-0.2-1.3-1-1.9-1.9c-0.5-0.7-1-1.5-1.7-2c-0.7-0.5-1.6-0.8-2.5-1c-1-0.3-2-0.6-2.4-1.2c-0.4-0.6-0.4-1.6-0.4-2.6
			c0-0.9,0-1.8-0.2-2.7c-0.3-0.8-0.8-1.5-1.3-2.2c-0.6-0.8-1.3-1.6-1.3-2.4s0.6-1.6,1.3-2.4c0.5-0.7,1.1-1.4,1.3-2.2
			c0.3-0.8,0.3-1.8,0.2-2.7c0-1,0-2,0.4-2.6c0.4-0.6,1.4-0.9,2.4-1.2c0.9-0.3,1.7-0.5,2.5-1c0.7-0.5,1.2-1.3,1.7-2
			c0.6-0.9,1.2-1.7,1.9-1.9c0.7-0.2,1.6,0.1,2.6,0.4c0.9,0.3,1.8,0.6,2.7,0.6s1.8-0.3,2.7-0.6c1-0.3,1.9-0.7,2.6-0.4
			c0.7,0.2,1.3,1,1.9,1.9c0.5,0.7,1,1.5,1.7,2c0.7,0.5,1.6,0.8,2.5,1c1,0.3,2,0.6,2.4,1.2c0.4,0.6,0.4,1.6,0.4,2.6
			c0,0.9,0,1.8,0.2,2.7c0.3,0.8,0.8,1.5,1.3,2.2c0.6,0.8,1.3,1.6,1.3,2.4c0,0.8-0.6,1.6-1.3,2.4C37,25.1,36.5,25.8,36.2,26.6z"/><path fill="#384a66" d="M17.2 10c-2 0-3.7 1.6-3.7 3.6 0 2 1.6 3.6 3.7 3.6s3.7-1.6 3.7-3.6C20.9 11.6 19.2 10 17.2 10zM17.2 15.8c-1.2 0-2.2-1-2.2-2.1 0-1.2 1-2.1 2.2-2.1s2.2 1 2.2 2.1C19.4 14.8 18.4 15.8 17.2 15.8zM14.1 20.5c0-1.4-1.2-2.6-2.6-2.6s-2.6 1.2-2.6 2.6 1.2 2.6 2.6 2.6S14.1 22 14.1 20.5zM10.3 20.5c0-.6.5-1.1 1.1-1.1s1.1.5 1.1 1.1-.5 1.1-1.1 1.1S10.3 21.1 10.3 20.5zM14.8 25c-1.9 0-3.5 1.6-3.5 3.5 0 1.9 1.6 3.5 3.5 3.5s3.5-1.6 3.5-3.5C18.3 26.6 16.7 25 14.8 25zM14.8 30.5c-1.1 0-2-.9-2-2 0-1.1.9-2 2-2s2 .9 2 2C16.8 29.6 15.9 30.5 14.8 30.5zM24.7 27.6c-2 0-3.6 1.6-3.6 3.6 0 2 1.6 3.6 3.6 3.6s3.6-1.6 3.6-3.6C28.4 29.2 26.8 27.6 24.7 27.6zM24.7 33.3c-1.2 0-2.1-.9-2.1-2.1 0-1.2 1-2.1 2.1-2.1s2.1.9 2.1 2.1C26.9 32.4 25.9 33.3 24.7 33.3zM31.6 21.6c-1.7 0-3 1.3-3 3s1.4 3 3 3 3-1.3 3-3S33.3 21.6 31.6 21.6zM31.6 26.1c-.8 0-1.5-.7-1.5-1.5s.7-1.5 1.5-1.5 1.5.7 1.5 1.5S32.5 26.1 31.6 26.1zM29.8 20c2.3 0 4.2-1.9 4.2-4.2s-1.9-4.2-4.2-4.2-4.2 1.9-4.2 4.2S27.5 20 29.8 20zM29.8 13.2c1.5 0 2.7 1.2 2.7 2.7s-1.2 2.7-2.7 2.7c-1.5 0-2.7-1.2-2.7-2.7S28.3 13.2 29.8 13.2z"/></svg>