<svg xmlns="http://www.w3.org/2000/svg" viewBox="0 0 426.899 272.848"><defs><clipPath id="a"><path d="M34.35 131.676c3.942 86.07 121.157 159.148 159.495 137.249 21.255-12.14 3.637-46.252 29.799-71.052 41.796-39.62 120.21 15.733 165.388-24.039 21.336-18.783 26.403-50.986 22.61-72.89C400.145 34.516 295.242-3.606 210.633.27 110.16 4.872 31.236 63.705 34.35 131.676z" fill="none"/></clipPath></defs><g data-name="Layer 2"><g data-name="Layer 1"><path d="M34.35 131.676c3.942 86.07 121.157 159.148 159.495 137.249 21.255-12.14 3.637-46.252 29.799-71.052 41.796-39.62 120.21 15.733 165.388-24.039 21.336-18.783 26.403-50.986 22.61-72.89C400.145 34.516 295.242-3.606 210.633.27 110.16 4.872 31.236 63.705 34.35 131.676z" fill="#fff4f2"/><g clip-path="url(#a)"><path d="M204.74 165.013c-1.648.179-58.242 4.049-58.242 4.049s-13.548 1.906-19.362 9.133a4.57 4.57 0 001.268 6.706l26.866 16.592a7.74 7.74 0 012.092 11.277 7.954 7.954 0 01-10.502 1.72l-27.964-17.265s-13.797 2.72-40.576-21.991c-.097-.09-.198-.19-.302-.284l-.489.127-.007-.003-52.533 13.212L0 151.526l65.345-17.062.54-.14s.073-.123.23-.346c1.745-2.416 13.783-17.168 52.693-24.846l6.984-2.004c10.61-11.358 30.68-26.805 33.506-29.098 2.33-1.886 9.33-1.903 11.212.416a5.426 5.426 0 01-.8 7.63c-4.522 3.669-9.825 8.413-14.984 13.325-5.162 4.919-10.18 10.004-14.13 14.354 0 0-2.212 3.525 2.375 3.981l49.412-19.002c2.742-1.195 7.248-.198 8.454 2.54 1.181 2.752-1.002 9.287-3.743 10.482l-44.77 20.327-.004.008a2.476 2.476 0 00.791 3.126l56.237-11.309c2.941-.545 6.417 3.697 6.963 6.638s-3.098 7.523-6.043 8.076L156.3 150.648a.26.26 0 00-.04.046 2.07 2.07 0 001.525 3.431c18.833.305 44.839-2.297 46.782-2.076 3.828.452 5.641 1.85 5.963 4.82.308 2.98-2.813 7.825-5.79 8.144z" fill="#eca085"/><path d="M69.695 148.22a.424.424 0 01-.539.178c-.007-.003-.023-.01-.027-.021a9.478 9.478 0 01-4.809-5.708 12.244 12.244 0 011.024-8.205l.54-.14s.074-.123.23-.346a.413.413 0 01.137.548c-.196.351-4.726 8.627 3.28 13.126a.415.415 0 01.164.569zM78.335 175.222c-.004.008-.004.008-.015.012-.097-.09-.198-.19-.302-.284l-.489.127-.007-.003c-9.118-8.01-5.99-16.672-5.952-16.756a.414.414 0 11.774.296c-.125.337-2.988 8.35 5.946 16.02a.411.411 0 01.045.588zM140.44 150.245c-17.445-7.906-24.328-30.943-24.404-31.205a.417.417 0 11.802-.232c.085.29 8.693 29.073 30.974 32.828a.417.417 0 11-.138.824 29.227 29.227 0 01-7.234-2.215zM83.317 155.946a.417.417 0 01-.018-.752c.312-.16 31.396-15.716 50.17 5.611a.418.418 0 01-.626.552c-18.347-20.85-48.857-5.577-49.164-5.42a.416.416 0 01-.362.009z" fill="#b86a4b"/><path d="M221.911 78.497c1.644-.215 58.14-5.332 58.14-5.332s13.502-2.204 19.155-9.557a4.57 4.57 0 00-1.415-6.676l-27.225-15.997a7.74 7.74 0 01-2.34-11.228 7.954 7.954 0 0110.462-1.95L307.025 44.4a79.49 79.49 0 0141.05 21.091c.095.092.203.186.31.277l.485-.138.007.003 52.229-14.367 25.793 36.201s-65.56 18.774-65.711 19c-1.692 2.455-26.687 16.94-52.133 26.003l-6.939 2.156c-10.356 11.59-30.08 27.476-32.856 29.83-2.288 1.937-9.286 2.108-11.218-.169a5.426 5.426 0 01.631-7.644c4.44-3.769 9.638-8.63 14.687-13.653 5.052-5.032 9.956-10.226 13.81-14.662 0 0 2.134-3.573-2.462-3.928l-48.982 20.087c-2.714 1.255-7.24.357-8.507-2.353-1.241-2.726.797-9.307 3.51-10.563l44.313-21.309.003-.007a2.476 2.476 0 00-.86-3.109l-55.974 12.546c-2.928.61-6.497-3.554-7.107-6.482s2.931-7.59 5.863-8.207l53.69-13.213a.26.26 0 00.038-.047 2.07 2.07 0 00-1.6-3.397c-18.834.11-44.777 3.285-46.725 3.107-3.836-.367-5.68-1.726-6.068-4.687-.373-2.973 2.64-7.885 5.61-8.27z" fill="#633322"/><path d="M273.967 28.268s-5.476 3.202-5.227 7.529c0 0 18.91 7.415 5.227-7.53zM220.87 80.419s-3.32 5.405-1.063 9.103c0 0 20.173-2.37 1.062-9.103zM215.156 108.071s-2.299 5.912.585 9.147c0 0 19.422-5.945-.585-9.147zM229.51 135.35s.01 6.343 3.874 8.307c0 0 15.926-12.606-3.874-8.307zM258.844 157.789s1.65 6.125 5.89 7.023c0 0 12.127-16.294-5.89-7.023zM282.071 84.911a.448.448 0 01-.075-.044.417.417 0 01-.09-.584c1.384-1.883 1.89-3.58 1.503-5.047a4.95 4.95 0 00-2.541-2.9h-.002a.417.417 0 01.341-.762 5.642 5.642 0 013.007 3.44c.458 1.725-.092 3.664-1.634 5.764a.417.417 0 01-.509.133zM279.302 102.864a.448.448 0 01-.075-.044.417.417 0 01-.09-.584c1.384-1.883 1.89-3.581 1.503-5.047a5.023 5.023 0 00-2.542-2.9h-.002a.417.417 0 01.341-.762 5.673 5.673 0 013.007 3.44c.459 1.725-.091 3.663-1.634 5.764a.417.417 0 01-.508.133zM286.78 117.538a.418.418 0 01-.226-.507c.709-2.227.644-3.998-.19-5.262a4.948 4.948 0 00-3.336-1.935.417.417 0 01.077-.831 5.719 5.719 0 013.95 2.298c.985 1.487 1.085 3.5.295 5.983a.417.417 0 01-.525.271.337.337 0 01-.046-.017zM298.915 131.656a.417.417 0 01-.236-.29c-.5-2.283-1.44-3.785-2.796-4.462a4.782 4.782 0 00-3.856-.008.417.417 0 01-.349-.759 5.688 5.688 0 014.57.016c1.597.794 2.689 2.488 3.247 5.034a.417.417 0 01-.319.496.412.412 0 01-.261-.027z" fill="#471301"/></g></g></g></svg>