<svg data-name="Layer 1" xmlns="http://www.w3.org/2000/svg" viewBox="0 0 700 550"><defs><clipPath id="a"><path fill="none" d="M0 0h700v550H0z"/></clipPath><clipPath id="b"><path d="M146.512 135.854c-7.861 1.114-78.336 12.034-117.528 54.542a98.712 98.712 0 00-23.871 46.542C3.492 244.604 1.389 255.965 0 268.773v47.49c1.796 12.142 5.408 23.264 11.788 31.583 3.689 4.811 6.331 7.871 6.776 8.544 33.002 49.842 101.146 53.243 127.277 54.547 87.285 4.357 97.166-39.739 178.617-45.99 51.038-3.917 82.755 10.664 113.307 25.247 32.983 15.742 64.608 31.484 117.718 23.952 2.893-.41 17.423-2.707 37.035-7.646 58.968-14.85 99.427-63.674 107.482-119.425v-41.013a145.247 145.247 0 00-8.141-31.189c-4.637-12.107-7.936-20.516-8.43-21.263-33-49.842-101.145-53.243-127.277-54.547-87.284-4.357-97.165 39.739-178.616 45.991-51.039 3.916-82.755-10.665-113.308-25.247-27.126-12.947-53.332-25.894-91.329-25.894a187.783 187.783 0 00-26.387 1.941" fill="none"/></clipPath><clipPath id="c"><path d="M155.074 309.895a42.872 42.872 0 01-53.307-.252l-2.828-2.267s-18.148 7.562-39.535 19.228c-11.016 6.008-19.198 28.363-24.544 48.637 35.543 31.933 88.63 34.581 110.981 35.696 35.028 1.749 57.599-4.308 77.324-12.589-2.655-21.676-9.703-63.209-25.35-71.744-21.389-11.666-39.536-19.228-39.536-19.228z" fill="none"/></clipPath></defs><g clip-path="url(#a)"><path d="M691.858 214.873c30.92 80.736-15.504 170.514-99.34 191.627-19.612 4.939-34.142 7.236-37.036 7.646-102.307 14.508-124.889-57.345-231.024-49.2-81.452 6.252-91.332 50.348-178.617 45.991-26.13-1.304-94.276-4.705-127.277-54.547-.445-.673-3.087-3.733-6.776-8.543-21.363-27.857-11.7-87.139-6.675-110.91a98.714 98.714 0 0123.871-46.541c39.191-42.508 109.667-53.428 117.527-54.542 102.307-14.508 124.89 57.345 231.025 49.199 81.451-6.251 91.332-50.347 178.616-45.991 26.132 1.305 94.276 4.706 127.277 54.548.494.747 3.792 9.155 8.43 21.263" fill="#fff9e7"/></g><g clip-path="url(#b)"><path d="M538.808 269.737s9.058 13.212 17.893.48z"/><path d="M525.227 262.86l22.48 1.579 20.027-1.578s-.03 15.814-4.568 21.38c-4.536 5.568-21.256 12.89-32.892 0z" fill="#817ab8"/><path d="M109.669 242.624a7.679 7.679 0 015.49-4.43 7.5 7.5 0 01.957-.108l.966.04a6.309 6.309 0 014.469 2.986 17.446 17.446 0 00-3.121-1.087 6.862 6.862 0 00-2.948-.061 17.715 17.715 0 00-5.813 2.66M135.882 240.79a7.908 7.908 0 012.675-1.97 9.453 9.453 0 013.27-.867 7.457 7.457 0 013.417.584 5.52 5.52 0 012.52 2.252 15.078 15.078 0 00-2.95-.904 13.577 13.577 0 00-2.87-.136 50.64 50.64 0 00-6.062 1.04M116.582 250.005c3.476 0 3.481-5.4 0-5.4-3.476 0-3.48 5.4 0 5.4M141.787 250.221c3.476 0 3.481-5.4 0-5.4-3.476 0-3.48 5.4 0 5.4M99.222 242.624a14.534 14.534 0 00-2.938 4.2 7.616 7.616 0 00-.585 4.842 7.191 7.191 0 00.933 2.228 10.593 10.593 0 001.582 1.872 18.07 18.07 0 004.105 2.853l.288.154.077.357a82.656 82.656 0 001.69 6.48 95.893 95.893 0 002.183 6.339c.799 2.086 1.739 4.107 2.723 6.1a48.079 48.079 0 003.42 5.688l.17.244-.003.26c-.048 2.464-.031 4.848-.131 7.375a18.32 18.32 0 01-2.114 7.258 16.914 16.914 0 01-4.915 5.637 15.268 15.268 0 01-6.768 2.865 16.18 16.18 0 006.34-3.404 17.225 17.225 0 004.282-5.637 19.088 19.088 0 001.182-3.324 18.12 18.12 0 00.474-3.48c.032-2.358-.047-4.864-.064-7.29l.164.507a51.814 51.814 0 01-6.405-12.166c-.804-2.14-1.534-4.307-2.134-6.51-.601-2.205-1.146-4.405-1.535-6.683l.365.51a19.381 19.381 0 01-4.272-3.26 11.453 11.453 0 01-1.638-2.193 7.714 7.714 0 01.133-7.845 13.11 13.11 0 013.39-3.977M157.69 242.624a13.082 13.082 0 013.39 3.977 7.707 7.707 0 01.133 7.845 11.37 11.37 0 01-1.637 2.194 19.358 19.358 0 01-4.272 3.259l.365-.51c-.39 2.278-.934 4.478-1.535 6.684-.6 2.202-1.33 4.369-2.133 6.509a51.781 51.781 0 01-6.406 12.166l.165-.506c-.018 2.425-.096 4.93-.064 7.289a18.118 18.118 0 00.473 3.48 19.092 19.092 0 001.183 3.324 17.236 17.236 0 004.28 5.637 16.187 16.187 0 006.34 3.404 15.269 15.269 0 01-6.766-2.865 16.914 16.914 0 01-4.915-5.637 18.304 18.304 0 01-2.114-7.258c-.101-2.527-.084-4.911-.132-7.374l-.004-.261.17-.244a48.086 48.086 0 003.422-5.688c.983-1.993 1.924-4.014 2.723-6.1a95.884 95.884 0 002.18-6.34 82.217 82.217 0 001.692-6.48l.078-.356.287-.154a18.048 18.048 0 004.105-2.853 10.598 10.598 0 001.583-1.872 7.24 7.24 0 00.933-2.228 7.617 7.617 0 00-.586-4.841 14.534 14.534 0 00-2.938-4.201"/><path d="M224.523 411.578s-5.32-73.308-26.708-84.974c-21.39-11.667-39.536-19.228-39.536-19.228l-3.204 2.52a42.874 42.874 0 01-53.308-.253l-2.828-2.267s-18.147 7.561-39.535 19.228c-21.39 11.666-32.097 84.974-32.097 84.974" fill="#f9c746"/><path d="M647.628 437.116s-10.316-98.845-31.705-110.512c-21.388-11.666-39.535-19.228-39.535-19.228l-3.205 2.519a42.872 42.872 0 01-53.307-.252l-2.828-2.267s-18.148 7.562-39.536 19.228c-21.39 11.667-32.096 84.975-32.096 84.975" fill="#ef4d59"/><path d="M66.494 353.393v57.819l-4.562 11.564 4.562-69.383zM188.189 353.393v57.819l4.562 11.564-4.562-69.383zM483.176 353.393v57.819l-4.562 11.564 4.562-69.383zM604.87 353.393v57.819l4.562 11.564-4.562-69.383zM129.344 252.373c-.242 2.075-.781 3.92-1.115 5.74a9.808 9.808 0 00-.22 2.602 2.7 2.7 0 001.335 2.146 2.377 2.377 0 01-1.601-.374 3.01 3.01 0 01-1.084-1.41 6.1 6.1 0 01-.177-3.29 10.595 10.595 0 011.03-2.93 9.236 9.236 0 011.832-2.484M120.543 269.737s9.058 13.212 17.893.48zM145.373 282.534c-3.956 4.483-7.852 6.906-11.506 7.978 0 0 9.225 1.011 11.506-1.165zM112.009 283.175a27.676 27.676 0 0011.637 7.899s-10.151 2.472-11.637-.985z"/></g><g clip-path="url(#c)" fill="#946026"><path d="M31.71 302.731c4.35 0 4.356-6.76 0-6.76-4.35 0-4.357 6.76 0 6.76M49.492 302.731c4.35 0 4.357-6.76 0-6.76-4.35 0-4.356 6.76 0 6.76M67.275 302.731c4.35 0 4.356-6.76 0-6.76-4.35 0-4.357 6.76 0 6.76M85.058 302.731c4.35 0 4.356-6.76 0-6.76-4.35 0-4.357 6.76 0 6.76M31.71 338.296c4.35 0 4.356-6.76 0-6.76-4.35 0-4.357 6.76 0 6.76M49.492 338.296c4.35 0 4.357-6.76 0-6.76-4.35 0-4.356 6.76 0 6.76M67.275 338.296c4.35 0 4.356-6.76 0-6.76-4.35 0-4.357 6.76 0 6.76M85.058 338.296c4.35 0 4.356-6.76 0-6.76-4.35 0-4.357 6.76 0 6.76M41.313 320.514c4.35 0 4.355-6.76 0-6.76-4.35 0-4.358 6.76 0 6.76M59.095 320.514c4.35 0 4.357-6.76 0-6.76-4.35 0-4.356 6.76 0 6.76M76.878 320.514c4.35 0 4.356-6.76 0-6.76-4.35 0-4.357 6.76 0 6.76M94.66 320.514c4.35 0 4.356-6.76 0-6.76-4.35 0-4.356 6.76 0 6.76M41.313 356.08c4.35 0 4.355-6.76 0-6.76-4.35 0-4.358 6.76 0 6.76M59.095 356.08c4.35 0 4.357-6.76 0-6.76-4.35 0-4.356 6.76 0 6.76M76.878 356.08c4.35 0 4.356-6.76 0-6.76-4.35 0-4.357 6.76 0 6.76M94.66 356.08c4.35 0 4.356-6.76 0-6.76-4.35 0-4.356 6.76 0 6.76M31.71 373.862c4.35 0 4.356-6.76 0-6.76-4.35 0-4.357 6.76 0 6.76M49.492 373.862c4.35 0 4.357-6.76 0-6.76-4.35 0-4.356 6.76 0 6.76M67.275 373.862c4.35 0 4.356-6.76 0-6.76-4.35 0-4.357 6.76 0 6.76M85.058 373.862c4.35 0 4.356-6.76 0-6.76-4.35 0-4.357 6.76 0 6.76M31.71 409.427c4.35 0 4.356-6.76 0-6.76-4.35 0-4.357 6.76 0 6.76M49.492 409.427c4.35 0 4.357-6.76 0-6.76-4.35 0-4.356 6.76 0 6.76M67.275 409.427c4.35 0 4.356-6.76 0-6.76-4.35 0-4.357 6.76 0 6.76M85.058 409.427c4.35 0 4.356-6.76 0-6.76-4.35 0-4.357 6.76 0 6.76M41.313 391.644c4.35 0 4.355-6.76 0-6.76-4.35 0-4.358 6.76 0 6.76M59.095 391.644c4.35 0 4.357-6.76 0-6.76-4.35 0-4.356 6.76 0 6.76M76.878 391.644c4.35 0 4.356-6.76 0-6.76-4.35 0-4.357 6.76 0 6.76M94.66 391.644c4.35 0 4.356-6.76 0-6.76-4.35 0-4.356 6.76 0 6.76M41.313 427.21c4.35 0 4.355-6.76 0-6.76-4.35 0-4.358 6.76 0 6.76M59.095 427.21c4.35 0 4.357-6.76 0-6.76-4.35 0-4.356 6.76 0 6.76M76.878 427.21c4.35 0 4.356-6.76 0-6.76-4.35 0-4.357 6.76 0 6.76M94.66 427.21c4.35 0 4.356-6.76 0-6.76-4.35 0-4.356 6.76 0 6.76M102.84 302.731c4.35 0 4.357-6.76 0-6.76-4.35 0-4.356 6.76 0 6.76M102.84 338.296c4.35 0 4.357-6.76 0-6.76-4.35 0-4.356 6.76 0 6.76M112.442 320.514c4.35 0 4.357-6.76 0-6.76-4.35 0-4.356 6.76 0 6.76M112.442 356.08c4.35 0 4.357-6.76 0-6.76-4.35 0-4.356 6.76 0 6.76M102.84 373.862c4.35 0 4.357-6.76 0-6.76-4.35 0-4.356 6.76 0 6.76M102.84 409.427c4.35 0 4.357-6.76 0-6.76-4.35 0-4.356 6.76 0 6.76M112.442 391.644c4.35 0 4.357-6.76 0-6.76-4.35 0-4.356 6.76 0 6.76M112.442 427.21c4.35 0 4.357-6.76 0-6.76-4.35 0-4.356 6.76 0 6.76M120.623 302.731c4.35 0 4.356-6.76 0-6.76-4.35 0-4.357 6.76 0 6.76M120.623 338.296c4.35 0 4.356-6.76 0-6.76-4.35 0-4.357 6.76 0 6.76M130.226 320.514c4.35 0 4.356-6.76 0-6.76-4.35 0-4.357 6.76 0 6.76M130.226 356.08c4.35 0 4.356-6.76 0-6.76-4.35 0-4.357 6.76 0 6.76M120.623 373.862c4.35 0 4.356-6.76 0-6.76-4.35 0-4.357 6.76 0 6.76M120.623 409.427c4.35 0 4.356-6.76 0-6.76-4.35 0-4.357 6.76 0 6.76M130.226 391.644c4.35 0 4.356-6.76 0-6.76-4.35 0-4.357 6.76 0 6.76M130.226 427.21c4.35 0 4.356-6.76 0-6.76-4.35 0-4.357 6.76 0 6.76M138.405 302.731c4.35 0 4.356-6.76 0-6.76-4.35 0-4.357 6.76 0 6.76M138.405 338.296c4.35 0 4.356-6.76 0-6.76-4.35 0-4.357 6.76 0 6.76M148.008 320.514c4.35 0 4.356-6.76 0-6.76-4.35 0-4.356 6.76 0 6.76M148.008 356.08c4.35 0 4.356-6.76 0-6.76-4.35 0-4.356 6.76 0 6.76M138.405 373.862c4.35 0 4.356-6.76 0-6.76-4.35 0-4.357 6.76 0 6.76M138.405 409.427c4.35 0 4.356-6.76 0-6.76-4.35 0-4.357 6.76 0 6.76M148.008 391.644c4.35 0 4.356-6.76 0-6.76-4.35 0-4.356 6.76 0 6.76M148.008 427.21c4.35 0 4.356-6.76 0-6.76-4.35 0-4.356 6.76 0 6.76M156.188 302.731c4.35 0 4.357-6.76 0-6.76-4.35 0-4.356 6.76 0 6.76M156.188 338.296c4.35 0 4.357-6.76 0-6.76-4.35 0-4.356 6.76 0 6.76M165.79 320.514c4.35 0 4.357-6.76 0-6.76-4.35 0-4.356 6.76 0 6.76M165.79 356.08c4.35 0 4.357-6.76 0-6.76-4.35 0-4.356 6.76 0 6.76M156.188 373.862c4.35 0 4.357-6.76 0-6.76-4.35 0-4.356 6.76 0 6.76M156.188 409.427c4.35 0 4.357-6.76 0-6.76-4.35 0-4.356 6.76 0 6.76M165.79 391.644c4.35 0 4.357-6.76 0-6.76-4.35 0-4.356 6.76 0 6.76M165.79 427.21c4.35 0 4.357-6.76 0-6.76-4.35 0-4.356 6.76 0 6.76M173.97 302.731c4.35 0 4.357-6.76 0-6.76-4.35 0-4.356 6.76 0 6.76M173.97 338.296c4.35 0 4.357-6.76 0-6.76-4.35 0-4.356 6.76 0 6.76M183.573 320.514c4.35 0 4.356-6.76 0-6.76-4.35 0-4.357 6.76 0 6.76M183.573 356.08c4.35 0 4.356-6.76 0-6.76-4.35 0-4.357 6.76 0 6.76M173.97 373.862c4.35 0 4.357-6.76 0-6.76-4.35 0-4.356 6.76 0 6.76M173.97 409.427c4.35 0 4.357-6.76 0-6.76-4.35 0-4.356 6.76 0 6.76M183.573 391.644c4.35 0 4.356-6.76 0-6.76-4.35 0-4.357 6.76 0 6.76M183.573 427.21c4.35 0 4.356-6.76 0-6.76-4.35 0-4.357 6.76 0 6.76M191.753 302.731c4.35 0 4.356-6.76 0-6.76-4.35 0-4.356 6.76 0 6.76M191.753 338.296c4.35 0 4.356-6.76 0-6.76-4.35 0-4.356 6.76 0 6.76M201.356 320.514c4.35 0 4.356-6.76 0-6.76-4.35 0-4.356 6.76 0 6.76M201.356 356.08c4.35 0 4.356-6.76 0-6.76-4.35 0-4.356 6.76 0 6.76M191.753 373.862c4.35 0 4.356-6.76 0-6.76-4.35 0-4.356 6.76 0 6.76M191.753 409.427c4.35 0 4.356-6.76 0-6.76-4.35 0-4.356 6.76 0 6.76M201.356 391.644c4.35 0 4.356-6.76 0-6.76-4.35 0-4.356 6.76 0 6.76M201.356 427.21c4.35 0 4.356-6.76 0-6.76-4.35 0-4.356 6.76 0 6.76M209.535 302.731c4.35 0 4.357-6.76 0-6.76-4.35 0-4.356 6.76 0 6.76M209.535 338.296c4.35 0 4.357-6.76 0-6.76-4.35 0-4.356 6.76 0 6.76M219.138 320.514c4.35 0 4.357-6.76 0-6.76-4.35 0-4.356 6.76 0 6.76M219.138 356.08c4.35 0 4.357-6.76 0-6.76-4.35 0-4.356 6.76 0 6.76M209.535 373.862c4.35 0 4.357-6.76 0-6.76-4.35 0-4.356 6.76 0 6.76M209.535 409.427c4.35 0 4.357-6.76 0-6.76-4.35 0-4.356 6.76 0 6.76M219.138 391.644c4.35 0 4.357-6.76 0-6.76-4.35 0-4.356 6.76 0 6.76M219.138 427.21c4.35 0 4.357-6.76 0-6.76-4.35 0-4.356 6.76 0 6.76"/></g><g clip-path="url(#b)"><path d="M519.58 245.648s3.024-8.858 8.21-11.45c5.185-2.593 6.48-4.32 6.48-4.32s.433 4.968 0 6.264c-.43 1.296 3.026-3.025 4.538-6.265 0 0 10.37 1.08 12.098-11.666 0 0 15.987-1.945 18.58 4.536 2.592 6.482 5.616 18.796 5.185 22.901 0 0 3.457 3.241 4.104-15.77 0 0 .65-5.186 3.242-6.699 2.591-1.512-6.05-9.505-6.05-9.505s-.216-3.889-1.296-5.617c-1.08-1.729-7.13-2.593-8.426-3.025s-1.728-5.185-3.889-5.185c-2.16 0-4.753 1.08-7.777-2.809-3.024-3.888-7.562 0-7.562 0s-1.944 1.73-5.617 1.081-3.888-2.809-7.56 1.08-3.026 4.321-7.347 3.89c-4.32-.433-6.697 1.295-6.913 4.536-.216 3.24-1.296 7.13-3.673 8.857-2.376 1.73-4.537 5.617-2.16 8.21 2.376 2.592 3.024 13.394 3.456 16.635.433 3.241 2.377 4.321 2.377 4.321"/><path d="M527.934 242.624a7.679 7.679 0 015.49-4.43 7.52 7.52 0 01.957-.108l.966.04a6.313 6.313 0 014.47 2.986 17.482 17.482 0 00-3.122-1.087 6.862 6.862 0 00-2.948-.061 17.715 17.715 0 00-5.813 2.66M554.146 240.79a7.912 7.912 0 012.676-1.97 9.441 9.441 0 013.271-.867 7.455 7.455 0 013.415.584 5.52 5.52 0 012.521 2.252 15.037 15.037 0 00-2.95-.904 13.571 13.571 0 00-2.869-.136 50.688 50.688 0 00-6.064 1.04M534.847 250.005c3.476 0 3.48-5.4 0-5.4-3.475 0-3.48 5.4 0 5.4M560.052 250.221c3.476 0 3.48-5.4 0-5.4-3.475 0-3.48 5.4 0 5.4M547.608 252.373c-.24 2.075-.78 3.92-1.114 5.74a9.724 9.724 0 00-.219 2.602 2.699 2.699 0 001.333 2.146 2.378 2.378 0 01-1.6-.374 3 3 0 01-1.084-1.41 6.091 6.091 0 01-.178-3.29 10.63 10.63 0 011.03-2.93 9.236 9.236 0 011.832-2.484M563.638 282.534c-3.956 4.483-7.852 6.906-11.506 7.978 0 0 9.225 1.011 11.506-1.165zM530.274 283.175a27.669 27.669 0 0011.636 7.899s-10.15 2.472-11.636-.985zM305.942 245.648s3.024-8.858 8.21-11.45c5.185-2.593 6.481-4.32 6.481-4.32s.432 4.968 0 6.264 3.025-3.025 4.537-6.265c0 0 10.37 1.08 12.098-11.666 0 0 15.987-1.945 18.58 4.536 2.592 6.482 5.617 18.796 5.185 22.901 0 0 3.457 3.241 4.104-15.77 0 0 .65-5.186 3.242-6.699 2.592-1.512-6.049-9.505-6.049-9.505s-.217-3.889-1.297-5.617c-1.08-1.729-7.129-2.593-8.426-3.025-1.296-.432-1.728-5.185-3.889-5.185-2.16 0-4.753 1.08-7.777-2.809-3.024-3.888-7.562 0-7.562 0s-1.944 1.73-5.617 1.081-3.888-2.809-7.56 1.08-3.026 4.321-7.347 3.89c-4.32-.433-6.697 1.295-6.913 4.536-.216 3.24-1.296 7.13-3.673 8.857-2.376 1.73-4.537 5.617-2.16 8.21 2.376 2.592 3.024 13.394 3.457 16.635.432 3.241 2.376 4.321 2.376 4.321"/><path d="M314.296 242.624a7.679 7.679 0 015.49-4.43 7.52 7.52 0 01.957-.108l.966.04a6.312 6.312 0 014.47 2.986 17.481 17.481 0 00-3.122-1.087 6.862 6.862 0 00-2.948-.061 17.725 17.725 0 00-5.813 2.66M340.51 240.79a7.898 7.898 0 012.675-1.97 9.447 9.447 0 013.27-.867 7.455 7.455 0 013.416.584 5.514 5.514 0 012.52 2.252 15.037 15.037 0 00-2.95-.904 13.568 13.568 0 00-2.868-.136 50.64 50.64 0 00-6.063 1.04M321.21 250.005c3.475 0 3.48-5.4 0-5.4-3.476 0-3.481 5.4 0 5.4M346.414 250.221c3.476 0 3.481-5.4 0-5.4-3.475 0-3.48 5.4 0 5.4M303.85 242.624a14.534 14.534 0 00-2.938 4.2 7.617 7.617 0 00-.586 4.842 7.24 7.24 0 00.933 2.228 10.598 10.598 0 001.583 1.872 18.048 18.048 0 004.105 2.853l.287.154.078.357a82.217 82.217 0 001.69 6.48 95.884 95.884 0 002.182 6.339c.799 2.086 1.74 4.107 2.723 6.1a48.086 48.086 0 003.422 5.688l.17.244-.004.26c-.048 2.464-.031 4.848-.132 7.375a18.304 18.304 0 01-2.114 7.258 16.914 16.914 0 01-4.915 5.637 15.269 15.269 0 01-6.767 2.865 16.187 16.187 0 006.34-3.404 17.235 17.235 0 004.28-5.637 19.092 19.092 0 001.184-3.324 18.12 18.12 0 00.473-3.48c.032-2.358-.046-4.864-.064-7.29l.165.507a51.78 51.78 0 01-6.406-12.166c-.804-2.14-1.533-4.307-2.133-6.51-.601-2.205-1.146-4.405-1.535-6.683l.365.51a19.358 19.358 0 01-4.272-3.26 11.371 11.371 0 01-1.638-2.193 7.707 7.707 0 01.133-7.845 13.082 13.082 0 013.39-3.977M362.317 242.624a13.11 13.11 0 013.391 3.977 7.714 7.714 0 01.133 7.845 11.453 11.453 0 01-1.638 2.194 19.381 19.381 0 01-4.272 3.259l.365-.51c-.389 2.278-.934 4.478-1.535 6.684-.6 2.202-1.33 4.369-2.134 6.509a51.816 51.816 0 01-6.405 12.166l.164-.506c-.017 2.425-.095 4.93-.064 7.289a18.122 18.122 0 00.474 3.48 19.09 19.09 0 001.182 3.324 17.225 17.225 0 004.281 5.637 16.18 16.18 0 006.341 3.404 15.268 15.268 0 01-6.768-2.865 16.914 16.914 0 01-4.915-5.637 18.32 18.32 0 01-2.114-7.258c-.1-2.527-.083-4.911-.13-7.374l-.005-.261.17-.244a48.079 48.079 0 003.421-5.688c.984-1.993 1.924-4.014 2.723-6.1a95.893 95.893 0 002.182-6.34 82.656 82.656 0 001.691-6.48l.077-.356.288-.154a18.07 18.07 0 004.105-2.853 10.594 10.594 0 001.582-1.872 7.192 7.192 0 00.933-2.228 7.616 7.616 0 00-.585-4.841 14.534 14.534 0 00-2.938-4.201M333.97 252.373c-.24 2.075-.78 3.92-1.113 5.74a9.807 9.807 0 00-.22 2.602 2.699 2.699 0 001.334 2.146 2.374 2.374 0 01-1.6-.374 3.003 3.003 0 01-1.084-1.41 6.1 6.1 0 01-.178-3.29 10.66 10.66 0 011.03-2.93 9.278 9.278 0 011.832-2.484M325.17 269.737s9.059 13.212 17.893.48z"/><path d="M350 282.534c-3.956 4.483-7.851 6.906-11.506 7.978 0 0 9.225 1.011 11.506-1.165zM316.637 283.175a27.668 27.668 0 0011.637 7.899s-10.152 2.472-11.637-.985z"/><path d="M429.015 411.578s-5.32-73.308-26.708-84.974c-21.39-11.667-39.536-19.228-39.536-19.228L349.7 294.63l-8.534 17.284v4.97l-7.778 14.041h-.576l-7.777-14.042v-4.969l-8.534-17.284-13.071 12.747s-18.147 7.561-39.535 19.228c-21.39 11.666-32.097 84.974-32.097 84.974" fill="#817ab8"/><path d="M303.431 307.376l6.679 23.116 14.925-18.579v4.969l-15.987 19.228-7.494-27.932 1.877-.802zM362.766 307.376l-6.679 23.116-14.925-18.579v4.969l15.987 19.228 7.495-27.932-1.878-.802zM332.813 330.925c.708 10.046.87 20.092.9 30.138-.026 10.046-.188 20.092-.9 30.138-.712-10.046-.874-20.092-.9-30.138.03-10.046.192-20.092.9-30.138M270.961 353.393v57.819l-4.562 11.564 4.562-69.383zM392.655 353.393v57.819l4.562 11.564-4.562-69.383zM546.144 325.504c-.277 0-.55-.002-.83-.007-22.709-.366-32.993-14.498-33.42-15.1a3.557 3.557 0 015.792-4.129c.368.507 8.806 11.812 27.742 12.117A42.163 42.163 0 00575.96 306a3.557 3.557 0 015.366 4.67 48.614 48.614 0 01-35.18 14.834M97.684 243.97l7.741-8.83.269.235-7.742 8.83zM101.963 259.259a48.342 48.342 0 012.21-7.289 47.736 47.736 0 013.207-6.909 47.627 47.627 0 01-2.21 7.289 48.271 48.271 0 01-3.207 6.909M154.948 259.259c-.892-3.049-1.537-6.119-2.187-9.191-.31-1.538-.626-3.075-.914-4.62-.304-1.541-.558-3.094-.822-4.659a44.192 44.192 0 012.78 9.063 53.138 53.138 0 011.143 9.407M153.118 235.916a13.327 13.327 0 014.565 5.905 13.308 13.308 0 01-4.565-5.905"/><path d="M105.57 249.806v-14.539l23.726-7.129 23.822 7.777v11.397a63.36 63.36 0 01-7.778 13.282c-4.537 5.567-22.468 10.852-33.378 0z" fill="#817ab8"/><path d="M101.315 245.648s3.024-8.858 8.21-11.45c5.185-2.593 6.48-4.32 6.48-4.32s.433 4.968 0 6.264c-.43 1.296 3.025-3.025 4.538-6.265 0 0 10.37 1.08 12.098-11.666 0 0 15.987-1.945 18.58 4.536 2.592 6.482 5.616 18.796 5.185 22.901 0 0 3.456 3.241 4.104-15.77 0 0 .65-5.186 3.242-6.699 2.591-1.512-6.05-9.505-6.05-9.505s-.216-3.889-1.296-5.617c-1.08-1.729-7.13-2.593-8.426-3.025s-1.728-5.185-3.889-5.185c-2.16 0-4.753 1.08-7.777-2.809-3.025-3.888-7.562 0-7.562 0s-1.944 1.73-5.617 1.081-3.888-2.809-7.56 1.08-3.026 4.321-7.347 3.89-6.697 1.295-6.913 4.536c-.216 3.24-1.297 7.13-3.673 8.857-2.377 1.73-4.537 5.617-2.16 8.21 2.376 2.592 3.024 13.394 3.456 16.635.433 3.241 2.377 4.321 2.377 4.321"/><path d="M114.952 240.765c4.862.002 9.666.188 14.467.13 2.398-.01 4.795-.068 7.18-.242a47.93 47.93 0 007.136-.973 23.886 23.886 0 01-7.01 2.076 48.265 48.265 0 01-7.295.561 65.863 65.863 0 01-7.288-.36 52.32 52.32 0 01-7.19-1.192M115.342 250.22c4.766.133 9.469.403 14.165.374a66.467 66.467 0 007.008-.313 23.074 23.074 0 006.83-1.547 15.614 15.614 0 01-6.666 2.645 37.902 37.902 0 01-7.167.637 57.79 57.79 0 01-7.15-.444 47.647 47.647 0 01-7.02-1.352M117.53 257.816a80.546 80.546 0 0010.854.368 42.28 42.28 0 005.334-.566 43.208 43.208 0 005.276-1.322 16.836 16.836 0 01-5.02 2.403 23.648 23.648 0 01-5.525.905 28.846 28.846 0 01-5.568-.316 22.305 22.305 0 01-5.35-1.472M305.776 242.624l4.15 9.46c1.384 3.15 2.736 6.315 4.166 9.444q2.07 4.725 4.33 9.36a77.503 77.503 0 002.375 4.57c.417.749.854 1.487 1.34 2.193a10.697 10.697 0 00.787 1.01 2.039 2.039 0 001.033.716 2.07 2.07 0 01-1.109-.641 10.624 10.624 0 01-.864-.973 28.105 28.105 0 01-1.487-2.126c-.915-1.467-1.753-2.977-2.564-4.501-1.61-3.052-3.055-6.185-4.489-9.318-1.379-3.16-2.743-6.324-4.02-9.524-1.277-3.2-2.518-6.414-3.648-9.67M306.59 259.259l2.97 6.167c.996 2.049 1.969 4.107 3.025 6.122q1.516 3.056 3.254 5.986a28.546 28.546 0 001.883 2.822 5.669 5.669 0 002.515 2.178 3.212 3.212 0 01-1.536-.755 10.643 10.643 0 01-1.248-1.2 28.427 28.427 0 01-2.077-2.753 68.466 68.466 0 01-3.424-5.956c-1.008-2.053-1.996-4.115-2.888-6.219s-1.743-4.225-2.473-6.392M360.945 242.624c-1.13 3.256-2.37 6.47-3.648 9.67s-2.642 6.365-4.02 9.524c-1.435 3.133-2.879 6.266-4.49 9.318-.81 1.524-1.649 3.034-2.564 4.5a27.82 27.82 0 01-1.487 2.127 10.466 10.466 0 01-.863.973 2.074 2.074 0 01-1.11.64 2.035 2.035 0 001.033-.715 10.869 10.869 0 00.79-1.01c.483-.706.921-1.444 1.338-2.193a77.49 77.49 0 002.375-4.57q2.253-4.634 4.33-9.36c1.43-3.13 2.782-6.293 4.166-9.444zM359.064 259.259c-.731 2.167-1.582 4.288-2.473 6.392-.892 2.104-1.88 4.166-2.888 6.219a68.215 68.215 0 01-3.425 5.956 28.249 28.249 0 01-2.076 2.753 10.723 10.723 0 01-1.248 1.2 3.212 3.212 0 01-1.536.755 5.66 5.66 0 002.514-2.178 28.378 28.378 0 001.884-2.822q1.737-2.925 3.253-5.986c1.057-2.015 2.03-4.073 3.026-6.122z"/><path d="M327.152 278.59a17.347 17.347 0 0011.06.263 6.88 6.88 0 018.356 3.514 4.588 4.588 0 01.237 3.673c-1.748 4.67-21.154 9.779-28.353-1.315l.002-.085a6.574 6.574 0 018.698-6.05" fill="#fff"/><path d="M327.17 278.54a16.05 16.05 0 0010.38.073 10.989 10.989 0 011.775-.492 7.224 7.224 0 011.898-.04 6.96 6.96 0 015.72 4.37 4.913 4.913 0 01.044 3.66 6.358 6.358 0 01-2.586 2.54 23.41 23.41 0 01-6.706 2.554 24.31 24.31 0 01-7.198.568 18.689 18.689 0 01-7.05-1.847 14.661 14.661 0 01-3.05-2.089 13.894 13.894 0 01-2.356-2.845l-.086-.138.008-.129a6.78 6.78 0 01.91-3.156 6.957 6.957 0 018.297-3.029m-.035.101a6.08 6.08 0 00-5.761.99 6.395 6.395 0 00-2.431 5.093l-.08-.266a16.413 16.413 0 002.272 2.551 15.998 15.998 0 002.83 1.905 18.518 18.518 0 006.618 1.874 27.486 27.486 0 006.99-.217 19.17 19.17 0 006.654-2.209 5.43 5.43 0 002.397-2.388 4.223 4.223 0 00-.247-3.28 6.68 6.68 0 00-5.263-3.663 7.231 7.231 0 00-1.657.005 13.867 13.867 0 00-1.675.382 15.303 15.303 0 01-3.606.46 21.453 21.453 0 01-7.041-1.237M517.486 242.624a14.51 14.51 0 00-2.937 4.2 7.61 7.61 0 00-.586 4.842 7.215 7.215 0 00.933 2.228 10.594 10.594 0 001.582 1.872 18.076 18.076 0 004.106 2.853l.287.154.078.357a82.217 82.217 0 001.691 6.48 95.308 95.308 0 002.181 6.339c.8 2.086 1.74 4.107 2.723 6.1a47.944 47.944 0 003.422 5.688l.17.244-.005.26c-.047 2.464-.03 4.848-.13 7.375a18.304 18.304 0 01-2.115 7.258 16.913 16.913 0 01-4.915 5.637 15.268 15.268 0 01-6.768 2.865 16.191 16.191 0 006.342-3.404 17.236 17.236 0 004.28-5.637 19.01 19.01 0 001.182-3.324 18.042 18.042 0 00.474-3.48c.032-2.358-.047-4.864-.064-7.29l.165.507a51.783 51.783 0 01-6.406-12.166c-.804-2.14-1.534-4.307-2.133-6.51-.6-2.205-1.147-4.405-1.536-6.683l.366.51a19.358 19.358 0 01-4.272-3.26 11.416 11.416 0 01-1.639-2.193 7.714 7.714 0 01.133-7.845 13.11 13.11 0 013.391-3.977M575.955 242.624a13.11 13.11 0 013.391 3.977 7.714 7.714 0 01.133 7.845 11.416 11.416 0 01-1.639 2.194 19.376 19.376 0 01-4.27 3.259l.364-.51c-.389 2.278-.934 4.478-1.535 6.684-.6 2.202-1.33 4.369-2.134 6.509a51.783 51.783 0 01-6.406 12.166l.165-.506c-.017 2.425-.096 4.93-.064 7.289a18.043 18.043 0 00.474 3.48 19.01 19.01 0 001.182 3.324 17.236 17.236 0 004.28 5.637 16.191 16.191 0 006.342 3.404 15.268 15.268 0 01-6.768-2.865 16.913 16.913 0 01-4.915-5.637 18.32 18.32 0 01-2.114-7.258c-.1-2.527-.084-4.911-.13-7.374l-.006-.261.17-.244a47.943 47.943 0 003.422-5.688c.984-1.993 1.924-4.014 2.723-6.1a95.893 95.893 0 002.182-6.34 82.209 82.209 0 001.69-6.48l.078-.356.287-.154a18.076 18.076 0 004.106-2.853 10.594 10.594 0 001.582-1.872 7.191 7.191 0 00.933-2.228 7.61 7.61 0 00-.586-4.841 14.512 14.512 0 00-2.937-4.201"/><path d="M576.441 240.79c-1.15 3.796-2.474 7.525-3.878 11.222q-2.11 5.544-4.473 10.99l-.566-.462a143.397 143.397 0 015.688-3.28q-2.587 2.027-5.267 3.92l-.976.694.41-1.154q1.982-5.595 4.233-11.083c1.497-3.66 3.077-7.288 4.83-10.848M520.229 259.259a134.492 134.492 0 015.219 3.296l-.582.409q-1.784-5.46-3.29-10.998c-1.006-3.692-1.927-7.408-2.664-11.177 1.368 3.588 2.55 7.23 3.65 10.895q1.65 5.498 3.027 11.073l.265 1.072-.847-.663a133.6 133.6 0 01-4.778-3.907"/></g><g clip-path="url(#a)"><path d="M127.021 151.371h5.031v25.715h-5.031v-10.653h-9.553v10.653h-5.069v-25.715h5.069v10.212h9.553v-10.212zM158.465 173.724a13.526 13.526 0 113.894-9.496 12.93 12.93 0 01-3.894 9.496m-15.392-3.453a8.564 8.564 0 0011.828 0 8.86 8.86 0 000-12.104 8.517 8.517 0 00-11.828 0 8.863 8.863 0 000 12.104M170.146 177.085l-7.2-25.715h5.327l4.922 19.066 5.363-19.066h4.335l5.4 19.066 4.922-19.066h5.327l-7.2 25.715h-5.767l-4.849-16.972-4.812 16.972h-5.768zM227.674 151.371v4.849h-6.943v20.866h-5.07V156.22h-6.906v-4.849h18.919zM250.67 173.724a13.526 13.526 0 113.893-9.496 12.93 12.93 0 01-3.894 9.496m-15.392-3.453a8.564 8.564 0 0011.828 0 8.86 8.86 0 000-12.104 8.517 8.517 0 00-11.828 0 8.863 8.863 0 000 12.104"/><path fill="#ef4d59" d="M282.189 151.371h5.068v25.715H283.4l-11.021-15.723v15.723h-5.069v-25.715h3.857l11.022 15.686v-15.686zM313.67 173.724a13.526 13.526 0 113.893-9.496 12.93 12.93 0 01-3.894 9.496m-15.392-3.453a8.564 8.564 0 0011.828 0 8.86 8.86 0 000-12.104 8.517 8.517 0 00-11.828 0 8.863 8.863 0 000 12.104M336.666 151.371v4.849h-6.943v20.866h-5.07V156.22h-6.906v-4.849h18.919z"/><path d="M354.041 177.085l-7.2-25.715h5.327l4.922 19.066 5.363-19.066h4.335l5.4 19.066 4.922-19.066h5.327l-7.2 25.715h-5.767l-4.849-16.972-4.812 16.972h-5.768zM390.445 172.236h10.837v4.849h-15.906v-25.714h15.722v4.849h-10.653v5.473h9.735v4.776h-9.735v5.767zM421.78 177.085l-1.543-4.628h-10.249l-1.543 4.628h-5.474l9-25.714h6.281l9.038 25.714zm-10.176-9.367h7.053l-3.527-10.506zM443.893 177.086l-5.18-8.927h-3.857v8.927h-5.069V151.37h10.286a8.529 8.529 0 018.558 8.523 7.828 7.828 0 01-1.358 4.426 8.51 8.51 0 01-3.6 3.068l5.694 9.698zm-9.037-20.976v7.604h5.217a3.227 3.227 0 002.461-1.12 3.854 3.854 0 001.028-2.7 3.79 3.79 0 00-1.028-2.682 3.25 3.25 0 00-2.46-1.102zM478.058 177.085l-1.543-4.628h-10.25l-1.542 4.628h-5.474l9-25.714h6.28l9.039 25.714zm-10.176-9.367h7.053l-3.527-10.506z"/><path fill="#817ab8" d="M520.412 151.371v25.715h-5.032v-16.678l-7.237 11.939h-.587l-7.238-11.902v16.641h-5.069v-25.715h5.217l7.383 12.159 7.347-12.159h5.216zM541.719 177.085l-1.543-4.628h-10.249l-1.543 4.628h-5.474l9-25.714h6.281l9.038 25.714zm-10.176-9.367h7.053l-3.527-10.506zM557.919 177.6a11.491 11.491 0 01-6.428-1.708 9.137 9.137 0 01-3.674-4.647l4.335-2.535a5.776 5.776 0 005.914 3.93 5.096 5.096 0 003.123-.771 2.428 2.428 0 00-.22-4.06 18.739 18.739 0 00-4.335-1.634 26.687 26.687 0 01-2.921-1.028 12.583 12.583 0 01-2.388-1.378 5.608 5.608 0 01-1.818-2.186 7.157 7.157 0 01-.624-3.085 6.887 6.887 0 012.479-5.566 9 9 0 015.97-2.075 9.925 9.925 0 015.49 1.524 10.253 10.253 0 013.694 4.243l-4.262 2.46a5.132 5.132 0 00-4.922-3.305 3.877 3.877 0 00-2.48.717 2.262 2.262 0 00-.9 1.855 2.339 2.339 0 001.01 1.965 14.145 14.145 0 003.876 1.635c.783.245 1.378.435 1.78.569q.607.202 1.655.625a10.006 10.006 0 011.616.789 12.936 12.936 0 011.304.992 5.087 5.087 0 011.12 1.286 7.356 7.356 0 01.937 3.637 6.891 6.891 0 01-2.59 5.657 10.385 10.385 0 01-6.741 2.094M590.466 177.085h-5.841l-9.183-12.049v12.049h-5.07V151.37h5.07v11.352l8.816-11.352h5.841l-9.514 12.49 9.881 13.225z"/></g></svg>